<?xml version="1.0" standalone="no"?>
<!DOCTYPE svg PUBLIC "-//W3C//DTD SVG 20010904//EN"
 "http://www.w3.org/TR/2001/REC-SVG-20010904/DTD/svg10.dtd">
<svg version="1.0" xmlns="http://www.w3.org/2000/svg"
 width="1024.000000pt" height="1024.000000pt" viewBox="0 0 1024.000000 1024.000000"
 preserveAspectRatio="xMidYMid meet">
<metadata>
Created by potrace 1.14, written by Peter Selinger 2001-2017
</metadata>
<g transform="translate(0.000000,1024.000000) scale(0.100000,-0.100000)"
fill="#000000" stroke="none">
<path d="M2360 10229 c-232 -27 -433 -85 -645 -189 -385 -188 -686 -489 -875
-875 -106 -216 -162 -412 -190 -660 -14 -124 -14 -6646 0 -6770 28 -248 84
-444 190 -660 189 -386 490 -687 875 -875 217 -106 412 -162 657 -189 67 -8
1115 -11 3375 -11 3255 0 3279 0 3362 20 121 29 211 80 301 170 90 90 141 180
170 301 25 106 25 192 0 298 -44 183 -169 341 -332 420 -84 41 -191 70 -255
71 l-33 0 0 640 0 640 33 0 c65 1 174 31 257 71 162 81 286 238 330 420 20 83
20 107 20 3349 0 3236 0 3266 -20 3349 -29 121 -80 212 -170 301 -90 90 -181
141 -301 170 -83 20 -105 20 -3379 19 -1812 -1 -3329 -5 -3370 -10z m5122
-2576 c66 -30 133 -96 165 -160 22 -46 27 -69 27 -133 0 -64 -5 -87 -27 -133
-32 -64 -99 -130 -165 -160 l-47 -22 -1995 0 -1995 0 -56 28 c-67 32 -132 99
-162 165 -29 65 -29 179 0 243 40 89 123 161 213 185 35 10 481 12 2020 11
l1975 -2 47 -22z m0 -1280 c66 -30 133 -96 165 -160 22 -46 27 -69 27 -133 0
-64 -5 -87 -27 -133 -32 -64 -99 -130 -165 -160 l-47 -22 -1995 0 -1995 0 -56
28 c-67 32 -132 99 -162 165 -29 65 -29 179 0 243 40 89 123 161 213 185 35
10 481 12 2020 11 l1975 -2 47 -22z m198 -4453 l0 -640 -2622 2 c-2520 3
-2625 4 -2678 21 -213 72 -374 235 -436 442 -25 83 -25 267 0 350 51 171 175
320 328 394 48 23 115 48 150 56 52 11 497 14 2661 14 l2597 1 0 -640z"/>
</g>
</svg>
